<?xml version="1.0" encoding="iso-8859-1"?>
<!-- Generator: Adobe Illustrator 22.1.0, SVG Export Plug-In . SVG Version: 6.00 Build 0)  -->
<svg version="1.1" id="Layer_1" xmlns="http://www.w3.org/2000/svg" xmlns:xlink="http://www.w3.org/1999/xlink" x="0px" y="0px"
	 width="850.394px" height="850.394px" viewBox="0 0 850.394 850.394" enable-background="new 0 0 850.394 850.394"
	 xml:space="preserve">
<path fill="#636393" d="M777.125,482.176c-0.137-0.41-0.274-0.73-0.501-1.049c-0.228-0.274-0.456-0.501-0.729-0.729
	c-0.046,0-0.046,0-0.046,0c-0.046-0.046-0.091-0.091-0.183-0.091c-0.228-0.182-0.456-0.319-0.729-0.365c-0.046,0-0.046,0-0.046,0
	c-0.046,0-0.046-0.045-0.091,0c-0.274-0.137-0.593-0.182-0.912-0.182c-0.593,0-1.14,0.137-1.642,0.41
	c-0.182,0.091-0.319,0.228-0.501,0.365c-5.745,4.605-11.444,9.165-17.144,13.679c-5.699,4.605-11.399,9.165-17.144,13.724
	c-11.444,9.119-22.889,18.284-34.333,27.448c-5.745,4.605-11.49,9.21-17.235,13.77c-11.49,9.21-23.026,18.42-34.607,27.676
	c-5.791,4.651-11.627,9.347-17.463,13.998c-0.365,0.228-0.638,0.502-0.912,0.912c-0.228,0.274-0.41,0.547-0.547,0.821
	c-0.182,0.319-0.365,0.684-0.41,1.094c-0.091,0.228-0.137,0.41-0.183,0.638c-0.137,0.73-0.137,1.459,0,2.189
	c0.091,0.365,0.183,0.684,0.319,1.049c7.934,20.244,9.985,37.525,4.924,52.982c-0.638,2.143-1.459,4.195-2.417,6.247
	c-6.748,14.454-20.153,27.357-41.264,39.759c-8.709,5.107-17.737,9.757-27.038,13.952c-4.651,2.097-9.347,4.104-14.134,5.973
	c-4.742,1.869-9.529,3.648-14.363,5.289c-6.429,2.188-12.904,4.149-19.378,5.927c-1.277,0.365-2.553,0.638-3.83,0.912
	c-1.459,0.274-2.918,0.547-4.332,0.684c-0.866,0.137-1.733,0.228-2.599,0.274c-1.413,0.137-2.873,0.182-4.24,0.182
	c-1.231,0-2.462-0.046-3.648-0.137c-1.231-0.091-2.417-0.182-3.602-0.365c-1.55-0.228-3.1-0.502-4.651-0.866h-0.045
	c-2.28-0.501-4.514-1.186-6.657-2.052c-1.231-0.456-2.417-0.958-3.557-1.505c-0.729-0.365-1.459-0.729-2.189-1.14
	c-0.182-0.046-0.319-0.137-0.501-0.274c-0.137-0.046-0.274-0.137-0.41-0.228c-0.41-0.228-0.821-0.456-1.231-0.729
	c-0.73-0.411-1.459-0.866-2.189-1.368c0,0,0-0.045-0.045-0.045c-1.231-0.866-2.417-1.733-3.557-2.69
	c-0.593-0.501-1.186-1.003-1.733-1.505c-0.821-0.775-1.596-1.55-2.371-2.371c-0.775-0.821-1.504-1.642-2.234-2.508v-0.045
	c-0.228-0.228-0.41-0.502-0.593-0.775c-0.729-0.912-1.413-1.824-2.052-2.827c-0.046,0-0.046-0.046-0.046-0.046
	c-0.41-0.593-0.821-1.231-1.186-1.915c-0.775-1.276-1.505-2.599-2.097-4.012l-0.046-0.046c-0.638-1.368-1.231-2.781-1.687-4.24
	l-0.046-0.046c-0.501-1.459-0.957-2.964-1.322-4.514c-0.729-3.1-1.186-6.338-1.277-9.712c-0.091-2.918-0.183-5.836-0.274-8.754
	c-0.137-2.918-0.228-5.836-0.274-8.754c-0.137-3.876-0.228-7.751-0.365-11.627c80.384-20.518,139.84-93.379,139.84-180.146
	c0-86.904-59.684-159.902-140.297-180.238c2.69-3.511,5.928-6.657,9.575-9.21c0.684-0.456,1.368-0.957,2.097-1.368
	c0.502-0.319,1.003-0.638,1.505-0.866c0.182-0.137,0.41-0.228,0.638-0.365c0.456-0.274,0.958-0.502,1.459-0.73
	c0.137-0.046,0.228-0.137,0.365-0.137c0.821-0.41,1.642-0.775,2.462-1.095c0.866-0.365,1.733-0.684,2.645-0.957
	c0.091-0.046,0.182-0.091,0.274-0.091c0.912-0.274,1.869-0.547,2.827-0.775c0.684-0.183,1.368-0.319,2.052-0.41
	c0.41-0.091,0.866-0.182,1.277-0.228c0.456-0.091,0.958-0.137,1.413-0.182c0.593-0.091,1.231-0.137,1.824-0.183
	c1.049-0.091,2.097-0.137,3.191-0.137h194.236c6.931,10.031,18.466,16.597,31.552,16.597c21.202,0,38.346-17.189,38.346-38.346
	c0-21.202-17.144-38.391-38.346-38.391c-14.91,0-27.813,8.526-34.151,20.974H486.273c-5.836,0-11.353-1.186-16.369-3.328
	c-1.277-0.547-2.462-1.14-3.648-1.778c-2.052-1.094-3.967-2.371-5.791-3.83c-0.592-0.456-1.14-0.866-1.641-1.368
	c-0.775-0.638-1.505-1.368-2.188-2.052c-1.413-1.413-2.736-2.918-3.921-4.56c-1.231-1.596-2.28-3.283-3.237-5.061
	c-0.638-1.185-1.231-2.371-1.778-3.648c-0.501-1.231-0.957-2.508-1.368-3.784v-0.045c-0.182-0.638-0.41-1.277-0.547-1.915
	c-0.456-1.778-0.821-3.556-1.003-5.335c-0.41-3.192-0.456-6.474-0.045-9.848c0-0.183,0.045-0.365,0.091-0.593
	c0.046-0.183,0.091-0.41,0.183-0.638c0.046-0.319,0.182-0.729,0.365-1.14c0-0.137,0.091-0.319,0.137-0.456
	c0.182-0.547,0.456-1.186,0.729-1.824c0.046-0.137,0.137-0.274,0.228-0.456c0.182-0.502,0.456-1.003,0.684-1.55
	c1.094-2.325,2.28-4.56,3.602-6.794v-0.046c1.915-3.328,4.012-6.566,6.292-9.666c2.234-3.146,4.696-6.155,7.25-9.028
	c0.638-0.73,1.322-1.505,1.915-2.234c1.277-1.413,2.508-2.872,3.739-4.331c0.501-0.593,1.003-1.14,1.413-1.733
	c0.183-0.183,0.274-0.319,0.41-0.502c1.231-1.413,2.371-2.872,3.556-4.331c0.912-1.186,1.778-2.325,2.645-3.465
	c0.228-0.274,0.456-0.593,0.729-0.912c0.228-0.319,0.456-0.638,0.684-0.958c0.866-1.14,1.687-2.325,2.508-3.465
	c0.912-1.322,1.824-2.645,2.69-3.967c0.593-0.866,1.186-1.778,1.733-2.644c0.501-0.775,0.957-1.55,1.459-2.371
	c0.912-1.505,1.778-3.009,2.599-4.514c0.775-1.459,1.505-2.918,2.234-4.332c0.866-1.824,1.687-3.602,2.416-5.426
	c0.547-1.277,1.003-2.508,1.459-3.739c0.046-0.137,0.091-0.228,0.091-0.319c1.14-3.146,2.006-6.292,2.69-9.484
	c0.228-1.094,0.456-2.143,0.638-3.283c0-0.091,0.046-0.228,0.046-0.319c0.046-0.228,0.091-0.456,0.091-0.684
	c0.137-0.775,0.228-1.596,0.319-2.417c0.274-2.416,0.41-4.833,0.41-7.295c0-1.003-0.046-2.052-0.091-3.055
	c-0.046-1.049-0.137-2.097-0.228-3.146c-0.091-1.049-0.228-2.143-0.365-3.192c-0.045-0.228-0.091-0.41-0.091-0.638
	c-0.137-0.866-0.274-1.733-0.456-2.599c-0.046-0.365-0.137-0.729-0.228-1.094c-0.228-1.094-0.456-2.097-0.729-3.192
	c-0.091-0.319-0.137-0.593-0.228-0.912c-0.091-0.41-0.228-0.866-0.365-1.277c-0.137-0.456-0.274-0.912-0.41-1.368
	c-0.501-1.687-1.094-3.374-1.687-5.016c-0.046-0.091-0.046-0.137-0.091-0.228c-0.638-1.687-1.322-3.42-2.097-5.061
	c-0.046,0-0.046,0-0.046-0.046c-0.775-1.687-1.55-3.283-2.417-4.879c-0.821-1.596-1.732-3.192-2.69-4.696c0-0.046,0-0.046,0-0.046
	c-0.958-1.55-1.961-3.009-3.009-4.469c-1.049-1.459-2.097-2.918-3.237-4.286c-1.094-1.413-2.28-2.736-3.511-4.058
	c-1.231-1.322-2.462-2.599-3.739-3.876c-1.094-1.049-2.188-2.052-3.283-3.009c-1.14-1.003-2.28-1.961-3.465-2.873
	c-1.003-0.821-2.006-1.55-3.055-2.325c-1.413-1.003-2.827-2.006-4.286-2.918c-1.277-0.821-2.553-1.596-3.876-2.325
	c-1.504-0.912-3.055-1.732-4.651-2.508c-1.14-0.593-2.28-1.14-3.465-1.641c-1.003-0.456-2.006-0.912-3.009-1.322
	c-2.736-1.14-5.563-2.143-8.435-2.964c-1.003-0.365-2.006-0.638-3.009-0.912c-3.739-1.049-7.569-1.869-11.49-2.416
	c-0.775-0.137-1.641-0.228-2.462-0.319c-1.231-0.182-2.508-0.319-3.784-0.41c-0.775-0.091-1.505-0.137-2.28-0.182
	c-1.003-0.046-1.961-0.137-2.964-0.137c-1.687-0.091-3.42-0.137-5.152-0.091c-12.219-0.137-23.846,1.824-34.424,5.654
	c-0.638,0.228-1.277,0.456-1.915,0.729c-8.39,3.192-16.141,7.569-23.026,12.995c-1.368,1.094-2.736,2.234-4.058,3.465
	c-1.322,1.094-2.553,2.28-3.784,3.511c-0.821,0.821-1.641,1.687-2.462,2.553c-8.709,9.484-15.411,21.02-19.424,34.105v0.045
	c-0.547,1.733-1.003,3.465-1.413,5.198v0.046c-0.593,2.553-1.003,5.152-1.322,7.66c-2.006,17.691,3.237,33.832,12.63,49.471
	c0.912,1.504,1.87,2.964,2.827,4.423c0.456,0.775,0.958,1.505,1.459,2.234c1.003,1.459,2.052,2.964,3.1,4.423
	c1.094,1.459,2.189,2.918,3.283,4.377c1.14,1.459,2.28,2.918,3.465,4.377c1.778,2.188,3.602,4.377,5.471,6.566
	c1.277,1.459,2.553,2.918,3.83,4.377c3.83,4.286,7.386,8.891,10.487,13.77c1.049,1.596,2.052,3.237,3.009,4.924
	c1.277,2.234,2.508,4.514,3.602,6.839c1.003,2.097,1.778,4.012,2.188,5.426c0.137,0.456,0.228,0.866,0.274,1.231
	c0.684,5.973,0.046,11.763-1.596,17.144c-0.41,1.277-0.866,2.554-1.368,3.739v0.046c-0.547,1.231-1.095,2.462-1.778,3.602
	c0,0,0,0,0,0.045c-1.277,2.371-2.736,4.56-4.468,6.611c-0.821,1.049-1.733,2.052-2.69,3.009c-0.41,0.456-0.912,0.912-1.413,1.368
	c-0.046,0-0.046,0.046-0.046,0.046c-0.729,0.684-1.55,1.368-2.371,2.006c-7.067,5.562-16.049,8.936-25.852,8.936H137.196
	c-6.383-12.447-19.241-20.974-34.151-20.974c-21.202,0-38.391,17.189-38.391,38.391c0,21.156,17.189,38.346,38.391,38.346
	c13.086,0,24.621-6.566,31.552-16.597h193.597c1.094,0,2.143,0.046,3.191,0.137c0.137,0,0.319,0,0.456,0.046
	c0.775,0.046,1.505,0.137,2.234,0.228c0.365,0.046,0.729,0.091,1.094,0.183c0.912,0.137,1.87,0.319,2.781,0.547
	c0.456,0.137,0.958,0.228,1.413,0.365c0.456,0.091,0.958,0.228,1.413,0.41c0.091,0,0.183,0.046,0.274,0.091
	c1.003,0.319,2.006,0.638,2.964,1.049c1.14,0.456,2.28,1.003,3.42,1.596c0.73,0.365,1.505,0.775,2.234,1.185
	c0.73,0.456,1.459,0.912,2.189,1.413c0.137,0.091,0.228,0.183,0.365,0.274h0.046c3.648,2.553,6.885,5.699,9.575,9.21
	c-80.613,20.336-140.297,93.334-140.297,180.238c0,86.767,59.456,159.629,139.84,180.146c-0.319,9.712-0.593,19.424-0.958,29.135
	v0.046c-0.045,1.094-0.091,2.188-0.228,3.237c-0.274,3.237-0.912,6.292-1.824,9.256c-0.73,2.553-1.733,5.061-2.918,7.386
	c-0.091,0.091-0.137,0.137-0.137,0.183c-1.185,2.371-2.553,4.605-4.195,6.702c-0.41,0.547-0.775,1.049-1.231,1.55
	c-0.319,0.456-0.729,0.912-1.14,1.322c-0.501,0.638-1.094,1.231-1.687,1.824c-0.547,0.547-1.049,1.049-1.596,1.55
	c-0.775,0.73-1.596,1.413-2.417,2.052c-0.501,0.456-1.003,0.866-1.55,1.185c-1.049,0.821-2.143,1.55-3.237,2.189
	c-0.638,0.456-1.277,0.821-1.961,1.14c-0.866,0.502-1.778,1.003-2.69,1.413c-1.14,0.547-2.325,1.049-3.511,1.505
	c-0.046,0-0.046,0-0.046,0c-1.003,0.411-2.052,0.775-3.055,1.094c-0.091,0-0.183,0.046-0.274,0.046
	c-0.958,0.319-1.961,0.593-2.964,0.775c-0.365,0.137-0.775,0.228-1.186,0.319c-1.094,0.274-2.234,0.456-3.374,0.593
	c-0.729,0.137-1.459,0.228-2.234,0.274c-1.413,0.182-2.873,0.274-4.332,0.274c-0.501,0.046-1.049,0.046-1.55,0
	c-0.684,0-1.368,0-2.006-0.046c-1.003,0-2.006-0.091-3.055-0.228c-1.55-0.137-3.146-0.365-4.742-0.638
	c-0.137-0.046-0.319-0.046-0.456-0.091c-0.319-0.046-0.638-0.137-0.958-0.183c-1.14-0.228-2.234-0.502-3.374-0.821
	c-6.474-1.778-12.949-3.739-19.378-5.927c-6.429-2.188-12.812-4.56-19.104-7.158c-12.63-5.244-24.895-11.262-36.476-18.056
	c-1.003-0.593-1.961-1.185-2.918-1.778c-1.003-0.593-1.961-1.186-2.873-1.778c-0.957-0.593-1.869-1.185-2.781-1.778
	c-1.824-1.185-3.511-2.371-5.152-3.602h-0.046c-1.641-1.231-3.237-2.417-4.787-3.648c-1.505-1.231-2.964-2.462-4.377-3.693
	c-0.729-0.638-1.413-1.277-2.097-1.87l-2.827-2.827c-0.912-0.912-1.824-1.869-2.69-2.827v-0.046
	c-1.186-1.276-2.234-2.553-3.237-3.83c-0.456-0.638-0.957-1.322-1.459-2.006c-0.958-1.322-1.824-2.599-2.645-3.921
	c0-0.045-0.046-0.045-0.046-0.045c-0.547-0.912-1.094-1.824-1.596-2.781c-0.228-0.41-0.456-0.821-0.684-1.231
	c-0.274-0.547-0.547-1.095-0.821-1.687c-1.413-2.964-2.553-6.019-3.374-9.165c-0.319-1.094-0.593-2.234-0.821-3.374
	c-0.502-2.371-0.821-4.833-1.003-7.341c-0.046-0.593-0.091-1.231-0.091-1.869c-0.501-11.49,2.143-23.983,7.615-37.89
	c0.775-1.961,0.456-4.149-0.821-5.791c-0.228-0.319-0.547-0.638-0.912-0.912c-17.509-13.998-34.835-27.859-52.07-41.628
	c-5.745-4.651-11.49-9.21-17.235-13.815c-11.444-9.165-22.935-18.329-34.333-27.448c-11.444-9.119-22.843-18.238-34.287-27.403
	c-0.137-0.137-0.319-0.274-0.501-0.365c-1.186-0.684-2.645-0.547-3.648,0.228c-0.274,0.228-0.547,0.501-0.775,0.775
	c-0.182,0.319-0.365,0.684-0.456,1.049c-1.186,4.241-2.827,11.217-3.83,20.609c-0.137,1.322-0.228,2.736-0.365,4.149
	c-1.596,20.7,0.274,51.249,14.91,88.227c2.69,6.794,8.116,15.32,14.408,23.892c5.699,7.751,11.946,15.046,18.649,21.931
	c2.234,2.325,4.514,4.56,6.839,6.748c2.325,2.189,4.696,4.332,7.113,6.429c7.25,6.292,14.91,12.174,22.843,17.645h0.046
	c0.091,0.046,0.182,0.137,0.319,0.228c0.137,0.046,0.274,0.137,0.456,0.274c1.915,1.14,6.611,3.83,13.451,7.706
	c2.052,1.186,4.332,2.462,6.748,3.83c1.641,0.912,3.328,1.869,5.107,2.872c4.423,2.553,9.347,5.335,14.636,8.344
	c0.228,0.137,0.456,0.228,0.684,0.41c1.368,0.729,2.782,1.55,4.241,2.416c0.547,0.274,1.094,0.593,1.641,0.912
	c2.234,1.277,4.514,2.553,6.885,3.921c14.134,8.07,30.184,17.28,47.054,27.129c2.827,1.642,5.654,3.283,8.526,4.97
	c4.468,2.553,8.936,5.198,13.45,7.888c3.784,2.189,7.615,4.469,11.444,6.748c13.405,7.933,26.947,16.049,40.124,24.12
	c1.87,1.14,3.739,2.28,5.608,3.42c11.216,6.885,22.114,13.679,32.418,20.29c2.143,1.368,4.24,2.736,6.338,4.058
	c4.605,3.009,9.073,5.928,13.405,8.8c1.55,1.003,3.1,2.052,4.605,3.055c9.119,6.155,17.372,11.946,24.53,17.235
	c2.416,1.778,4.651,3.465,6.794,5.152c1.049,0.821,2.052,1.642,3.055,2.417c1.003,0.821,1.961,1.55,2.873,2.325
	c0.228,0.228,0.456,0.41,0.729,0.593c0.228,0.182,0.456,0.365,0.73,0.547c0.091,0.045,0.182,0.091,0.228,0.137
	c0.365,0.274,0.729,0.501,1.14,0.73c0.091,0.045,0.137,0.091,0.228,0.137c0,0,0,0,0.046,0.046c0.775,0.41,1.596,0.821,2.462,1.14
	c0.41,0.182,0.821,0.365,1.277,0.502c0.41,0.137,0.866,0.228,1.277,0.365c0.41,0.137,0.866,0.228,1.322,0.319
	c0.456,0.091,0.912,0.137,1.368,0.182c1.505,0.228,3.055,0.228,4.56,0.091c1.733-0.137,3.465-0.501,5.152-1.094
	c1.14-0.41,2.28-0.912,3.374-1.505c1.049-0.638,2.052-1.368,3.009-2.143c4.605-3.83,10.168-8.07,16.506-12.584h0.045
	c2.508-1.87,5.107-3.739,7.843-5.608h0.046c2.736-1.961,5.608-3.921,8.572-5.882h0.045c8.845-6.064,18.649-12.402,28.999-18.967
	c1.778-1.14,3.511-2.234,5.289-3.329c3.511-2.234,7.113-4.468,10.715-6.702c5.471-3.42,11.08-6.839,16.733-10.259
	c3.739-2.325,7.523-4.605,11.353-6.885c1.915-1.185,3.875-2.371,5.791-3.465c3.83-2.325,7.66-4.605,11.535-6.931
	c1.961-1.14,3.921-2.325,5.836-3.42c3.875-2.325,7.706-4.605,11.581-6.839c15.503-9.119,30.822-18.01,45.276-26.263
	c3.602-2.097,7.159-4.104,10.624-6.11c12.265-7.022,23.755-13.496,33.969-19.241c5.471-3.1,10.578-5.973,15.274-8.617
	c1.55-0.866,3.055-1.733,4.514-2.553c1.186-0.638,2.325-1.322,3.42-1.915c3.283-1.869,6.292-3.556,8.982-5.061
	c1.778-1.003,3.42-1.915,4.879-2.736c0.729-0.41,1.413-0.821,2.097-1.186c1.277-0.73,2.417-1.368,3.374-1.915
	c1.915-1.14,3.101-1.824,3.511-2.097c5.289-3.648,10.487-7.432,15.457-11.444c2.508-2.006,4.97-4.058,7.386-6.155
	c3.602-3.192,7.158-6.429,10.578-9.803c2.052-2.006,4.058-4.058,6.019-6.155c2.644-2.781,5.198-5.699,7.706-8.663
	c1.824-2.097,3.556-4.286,5.243-6.474c0.091-0.137,0.228-0.274,0.365-0.456c0.912-1.185,1.778-2.371,2.69-3.602
	c0.775-1.094,1.55-2.143,2.325-3.192c1.14-1.596,2.234-3.191,3.283-4.742c1.049-1.596,2.006-3.146,2.964-4.651
	c0.319-0.547,0.638-1.003,0.912-1.504c0.319-0.502,0.593-1.003,0.866-1.505c1.687-2.964,3.1-5.745,4.104-8.298
	C789.162,537.802,780.955,495.854,777.125,482.176z M442.365,120.241c-8.298,10.076-20.883,16.46-34.926,16.46
	c-12.493,0-23.755-5.061-31.962-13.223c-1.55-1.504-2.964-3.191-4.286-4.924c-1.322-1.733-2.508-3.602-3.511-5.517
	c-3.511-6.429-5.471-13.77-5.471-21.566c0-0.866,0.046-1.733,0.091-2.599c0-0.73,0.091-1.413,0.137-2.097
	c0.046-0.501,0.137-1.003,0.183-1.505c1.094-7.797,4.149-15.001,8.663-20.974c0.821-1.14,1.733-2.234,2.69-3.237
	c0.456-0.547,1.003-1.094,1.505-1.596c1.003-1.049,2.097-2.006,3.191-2.918h0.046c1.14-0.957,2.234-1.824,3.465-2.599
	c0.593-0.41,1.186-0.775,1.824-1.186c0.638-0.365,1.277-0.775,1.915-1.049c0.638-0.41,1.322-0.729,1.961-1.003
	c0.501-0.274,0.958-0.502,1.459-0.73c0.684-0.319,1.413-0.593,2.098-0.866c3.465-1.322,7.067-2.188,10.852-2.599
	c1.687-0.228,3.42-0.319,5.152-0.319c2.371,0,4.696,0.182,6.93,0.547c1.505,0.228,2.964,0.501,4.423,0.912
	c1.459,0.365,2.872,0.775,4.24,1.322c0.137,0.046,0.274,0.091,0.41,0.137c0.684,0.274,1.413,0.547,2.097,0.866
	c1.824,0.821,3.648,1.733,5.335,2.781c0.638,0.41,1.231,0.775,1.824,1.186c1.231,0.775,2.371,1.687,3.511,2.599
	c0.638,0.501,1.231,1.049,1.869,1.596c0.593,0.593,1.186,1.14,1.733,1.733c1.186,1.231,2.325,2.508,3.42,3.875
	c0.456,0.593,0.866,1.186,1.277,1.778c0.456,0.638,0.912,1.322,1.322,2.006c1.322,2.097,2.462,4.286,3.42,6.566
	c0.319,0.775,0.593,1.55,0.866,2.325c0.319,0.775,0.593,1.596,0.775,2.417c0.274,0.775,0.456,1.596,0.638,2.416
	c0.41,1.642,0.684,3.283,0.866,5.016c0.228,1.687,0.319,3.42,0.319,5.198c0,6.429-1.322,12.539-3.784,18.101
	c-0.821,1.87-1.733,3.648-2.781,5.38c-0.41,0.593-0.775,1.231-1.186,1.824C444.189,117.961,443.277,119.147,442.365,120.241z"/>
</svg>
